<?xml version="1.0" encoding="UTF-8"?>
<svg id="Ebene_1" data-name="Ebene 1" xmlns="http://www.w3.org/2000/svg" viewBox="0 0 1266.9 603.99">
  <defs>
    <style>
      .cls-1 {
        fill: #BBBBBB;
        stroke-width: 0px;
      }
    </style>
  </defs>
  <path class="cls-1"  d="M1262.59,270.51c-1.64-.94-2.84-2.36-3.94-3.91-1.12-1.59-2.14-3.34-3.93-4.32-3.61-1.99-7.16-4.06-10.57-6.38-2.67-1.81-5.91-2-8.89-2.93-3.48-1.09-6.82-1-10.02.62-4.64,2.34-9.67,3.64-14.37,5.92-5.56,2.69-9.79,6.75-14.18,10.76-3.83,3.5-7.21,7.56-11.3,10.72-3.13,2.41-5.53,5.34-7.66,8.42-3.13,4.54-7,8.45-10.17,12.93-2.38,3.36-5.57,6.09-7.58,9.74-1.56,2.83-3.1,5.69-4.71,8.49-.84,1.45-2,2.63-3.31,3.71-3.6,2.97-7.81,4.89-11.79,7.22-3.36,1.97-6.87,3.3-10.81,3.52-1.45.08-2.85.63-4.24,1.16-8.53,3.22-16.99,6.75-26.39,6.37-.39-.02-.78.05-1.17.09-5.67.62-11.36-.33-17.03.18-.57.05-1.17-.14-1.74-.29-2.48-.65-5.03-.91-7.56-1.09-4-.29-7.69-1.56-11.24-3.27-2.49-1.21-5.1-1.98-7.74-2.76-3.47-1.02-7.06-1.93-10.2-3.73-4.29-2.46-8.93-4.06-13.42-6.01-4.38-1.9-8.19-4.63-10.85-8.3-3.84-5.3-6.85-11.21-10.18-16.87-.34-.58-.57-1.25-.76-1.91-1.01-3.38-2.05-6.74-2.96-10.14-1.72-6.43-3.62-12.81-5.79-19.09-1.02-2.97-2.02-5.93-2.67-9-.3-1.44-.7-2.85-1.28-4.22-.74-1.74-.91-3.54-.39-5.45.51-1.87.88-3.75.38-5.79-.34-1.37-.27-2.93.1-4.38.43-1.65.28-3.28-.04-4.94-.57-2.91-.48-5.87-.17-8.81.67-6.26,3.09-12.14,4.06-18.34.12-.76.37-1.56.78-2.21,2.99-4.69,3.65-10.63,7.87-14.67.39-.37.58-1.04.7-1.61.76-3.66,3-6.55,4.91-9.62.95-1.52,2.08-2.75,3.62-3.76,1.88-1.23,3.62-2.71,4.99-4.53.73-.97,1.61-1.69,2.69-2.22,4.24-2.07,8.4-4.27,12.49-6.61,4.34-2.48,8.81-4.72,13.28-6.96,2.62-1.31,5.23-2.94,8.25-2.91,2.19.02,4.01-.71,5.84-1.66.78-.41,1.57-.86,2.4-1.09,3.93-1.09,7.43-3.07,10.92-5.09.68-.39,1.36-.89,2.1-1.03,4.19-.82,6.7-3.75,8.41-7.23,2.13-4.35,2.14-11.13-4-13.87-.71-.32-1.34-.82-2.05-1.16-4.48-2.19-8.46-5.36-13.43-6.59-2.19-.54-4.59-.63-6.48-1.87-3.31-2.17-6.94-3.12-10.76-3.68-4.68-.68-8.8-2.6-12.42-5.65-1.2-1.01-2.59-1.78-3.81-2.78-4.05-3.33-7.84-6.94-10.01-11.8-1.83-4.12-3.56-8.28-5.14-12.52-1.44-3.86-2.5-7.83-3.77-11.73-1.1-3.38-1.63-6.91-.46-10.42,1.53-4.55,3.36-8.92,5.94-13.07,2.17-3.48,4.62-6.37,7.8-8.96,4.44-3.62,9.48-5.11,14.95-5.18,4.69-.06,9.41.4,14.08.89,3.98.42,7.56,2,10.66,4.6.9.76,1.77,1.61,2.81,2.13,2.38,1.19,4.06,3.02,5.56,5.14.68.96,1.43,1.91,2.31,2.66,4.26,3.6,7.62,8.14,12.43,11.2,2.27,1.45,4.25,2.24,6.81,1.62.76-.18,1.55-.23,2.32-.36,5.41-.88,10.21-5.02,11.24-9.57,1.03-4.53.06-8.68-1.94-12.78-1.66-3.39-4.58-5.57-7.08-8.17-2.41-2.49-4.97-4.71-8.19-6.16-1.41-.64-2.69-1.65-3.86-2.68-1.43-1.24-2.91-2.42-4.68-3-5.22-1.7-9.27-5.45-14.1-7.85-3.69-1.83-7.47-2.93-11.48-3.41-3.5-.42-7.02-.69-10.53-1.09-2.3-.26-4.51-.23-6.48,1.22-1.39,1.02-3.03,1.35-4.68,1.65-4.15.74-8.3,1.53-12.46,2.23-5.11.87-9.38,3.88-14.22,5.43-.09.03-.17.1-.24.16-2.1,2.02-4.82,2.98-7.33,4.3-3.14,1.65-6.14,3.46-8.35,6.37-1.42,1.87-3.01,3.64-4.97,4.99-3.41,2.36-5.77,5.87-9.09,8.33-.53.39-.95,1.03-1.22,1.65-1.24,2.82-3.23,5.15-4.99,7.63-1.6,2.26-2.82,4.69-3.8,7.28-1.14,3.02-2.4,6-3.67,8.98-1.98,4.62-3.01,9.5-1.03,14.49.51,1.28,1.05,2.54,1.67,3.77.63,1.24.99,2.51,1.26,3.88,1.52,7.48,4.06,14.51,9.5,20.15.34.35.69.75.86,1.19,1.04,2.62,3.18,4.2,5.4,5.67,1.11.74,1.98,1.63,2.47,2.83.82,2,2.25,3.41,4.05,4.53,2.47,1.53,3.9,3.85,4.72,6.55.48,1.61,1.04,3.17,1.86,4.62,4.61,8.08,1.58,15.48-2.01,22.84-.04.08-.13.15-.19.22-2.68,3-5.53,5.83-8.62,8.39-1.62,1.34-3.06,2.77-4.09,4.56-1.23,2.16-2.95,3.66-5.3,4.41-1.74.56-3.11,1.6-4.37,2.9-1.65,1.69-3.47,3.33-5.64,4.2-4.82,1.92-9.73,3.75-14.87,4.57-2.91.47-5.81.89-8.66,1.61-4.59,1.16-8.91,2.95-13.11,5.15-4.27,2.23-6.83,6.46-10.9,8.87-.39.23-.59.77-.89,1.16-2.88,3.59-5.8,7.13-8.33,11.01-1.41,2.18-2.82,4.3-3.36,6.8-.61,2.84-1.71,5.4-3.32,7.79-.89,1.32-1.45,2.82-1.52,4.41-.07,1.71-.6,3.24-1.33,4.77-1.02,2.14-1.44,4.33-1.18,6.8.32,3.09.39,6.27-.88,9.29-.75,1.77-.7,3.59-.07,5.46.81,2.39.7,4.81-.28,7.18-1.65,3.98-3.62,7.77-5.81,11.5-2.27,3.86-5.49,5.32-9.48,6.09-1.45.28-2.86.16-3.97-.62-2.79-1.95-5.92-3.61-7.71-6.66-2.32-3.98-5.82-7.18-7.58-11.53-.18-.43-.58-.79-.94-1.12-5.4-4.85-8.69-11.33-13.14-16.92-.78-.99-1.23-2.22-1.41-3.52-.35-2.52-.43-5.13-1.22-7.51-1.51-4.54-1.33-9.11-.76-13.68.38-2.99-.42-5.44-2.33-7.56-1.26-1.41-2.37-2.86-3.07-4.63-.79-2-2.19-3.42-4.12-4.4-5.66-2.86-11.53-4.76-17.97-4.93-3.63-.09-7.26-.24-10.89-.27-.7,0-1.36-.09-2-.4-3.47-1.64-6.81-3.46-9.73-6.01-4.15-3.63-7.89-7.68-11.79-11.55-1.63-1.62-3.37-2.99-5.57-3.72-1.94-.64-3.47-1.78-4.51-3.57-.5-.85-1.08-1.68-1.96-2.17-3.84-2.15-6.43-5.69-9.56-8.62-3.83-3.59-8.02-6.59-12.61-9.1-3.33-1.82-6.13-4.23-8.06-7.56-.54-.93-1.02-1.98-1.79-2.68-2.58-2.32-3.61-5.28-4.04-8.58-.11-.87-.45-1.71-.61-2.57-1.14-5.96-.37-11.87.88-17.67.44-2.07,1.32-4.07,1.6-6.22.64-4.79,1.91-9.36,4.48-13.56,1.32-2.15,2.23-4.62,2.4-7.2.29-4.32,1.98-8.09,3.96-11.88,2.27-4.33,4.31-8.81,6.08-13.37,1.65-4.23,4.42-7.84,6.1-12.03.28-.69.95-1.24,1.47-1.83.97-1.1,2.04-2.13,2.93-3.3,4.3-5.61,6.8-12.12,8.93-18.76.46-1.43.66-3.25-.3-4.58-2.09-2.89-5.06-4.86-8.56-5.13-2.35-.18-4.97.22-7.13,1.47-3.71,2.15-7.84,3.13-11.78,4.63-2.38.91-4.88,1.64-7.49,1.29-1.67-.22-3.34-.29-5-.17-4.28.3-8.14-.96-11.84-2.95-1.47-.79-2.96-1.7-4.7-1.52-2.64.28-5.02-.6-7.45-1.34-3.95-1.2-7.93-2.3-12.14-1.65-3.31.52-6.64.7-9.99.6-1.09-.03-2.22-.08-3.18.46-2.64,1.5-5.46,2.81-7.77,4.72-2.73,2.26-5.54,4.39-8.42,6.43-1.3.92-2.37,2.01-3.49,3.13-2.7,2.71-4.75,5.94-7.45,8.69-3.27,3.33-4.92,8.51-2.15,13.53,1.3,2.36,2.83,4.48,4.86,6.23,2.49,2.15,7.89,2.99,10.55,1.03,3.73-2.75,8.04-4.52,11.6-7.51,2.57-2.15,5.34-4.05,8.72-4.7,1.75-.33,3.4-.94,5.02-1.62,1.86-.78,3.73-1.02,5.74-.52,2.28.57,4.51,1.31,6.85,1.65,1.41.21,2.62.97,3.23,2.32.74,1.64,1.86,2.98,2.96,4.36,2.5,3.16,3.37,7.02,4.6,10.75.65,1.95.76,3.87.33,5.8-.82,3.73-2.36,7.26-3.02,11.04-.11.65-.53,1.27-.93,1.83-2.15,3.02-3.23,6.48-4.11,10.01-.28,1.15-.62,2.27-1.17,3.32-2.13,3.98-2.98,8.2-2.98,12.73,0,4.61-.54,9.19-2.57,13.45-2.01,4.21-5.34,6.93-9.67,8.46-2.42.85-4.98.98-7.53,1.2-6.92.6-13.87.8-20.6,2.91-5.84,1.82-11.58,3.72-16.35,7.75-1.36,1.15-3.05,1.75-4.72,2.34-2.79.99-5.47,2.24-7.7,4.23-2.91,2.6-6.37,4.57-8.79,7.76-.62.82-1.7,1.31-2.6,1.91-1.32.88-2.5,1.87-3.35,3.25-1.03,1.67-2.02,3.39-3.26,4.9-2.2,2.68-3.38,5.74-3.81,9.1-.66,5.14-1.72,10.04-6.4,13.24-.63.43-1.17,1.07-1.62,1.7-2.14,2.98-5.21,4.36-8.65,5.08-3.55.74-6.92,2.22-10.6,2.42-.96.05-1.97.34-2.82.8-3.11,1.67-6.44,2.93-9.37,4.95-2.2,1.52-4.16,3.15-5.49,5.6-1.35,2.51-3.43,4.48-5.9,6.03-2.41,1.51-4.59,3.31-6.5,5.46-2.67,3.01-4.85,6.38-7.56,9.38-3.29,3.64-3.53,8.18-2.09,12.75,1.21,3.83,4.77,6.19,8.37,5.43,2.37-.5,4.83-1.13,6.77-2.7,2.59-2.1,5.36-4.12,7.42-6.67,2.4-2.98,5.01-5.77,7.38-8.77,1.15-1.46,2.35-3.03,4.2-3.6,4.76-1.48,9.45-3.16,14.44-3.89,6-.88,10.93,1.54,15.81,4.36.57.33,1.01.94,1.41,1.49,1.28,1.76,2.94,3.16,4.55,4.58,3.63,3.21,5.68,7.17,6.01,12.01.05.78.09,1.57.21,2.35.49,3.37-2.65,12.2-5.26,14.41-5.23,4.44-11.03,7.79-17.84,9.17-1.37.28-2.69.68-3.62,1.78-1.68,1.97-3.9,2.95-6.34,3.44-2.04.41-3.96,1.1-5.8,2.06-6.41,3.38-12.41,7.51-19.06,10.45-.53.23-1.03.58-1.47.97-4.12,3.64-8.09,7.44-11.8,11.5-1.52,1.66-2.7,3.57-3.54,5.72-1.58,4.02-3.02,8.05-3.94,12.29-.71,3.29-.79,6.49-.5,9.84.48,5.73,2.64,10.64,6.29,14.91,3.25,3.8,6.7,7.43,9.73,11.41.72.94,1.63,1.68,2.49,2.48,3.21,2.99,7.23,4.69,10.84,7.05,1.83,1.2,3.64,2.23,5.87,2.56,2.24.33,4.37,1.17,6.33,2.33,2.68,1.58,5.56,1.99,8.52,1.34,2.21-.49,4.29-.26,6.37.43,1.46.49,2.86.46,4.32-.08,1.57-.59,3.23-.82,4.93-.71,1.59.1,3.1-.22,4.65-.58,3.84-.9,7.55-2.11,11.13-3.77,4.68-2.16,9.92-2.4,14.68-4.23,2.99-1.15,5.91-1.17,8.94-.49,2.58.58,5.18,1.19,7.85,1.11,2.42-.07,4.68.34,6.82,1.5,1.52.83,3.09.95,4.84.57,2.09-.46,4.23-.79,6.42-.48,1.59.22,3.19-.18,4.45-1.18,2.09-1.64,4.39-2.97,6.52-4.54,2.07-1.52,4.17-3.33,4.33-6.05.17-2.91-.04-6-1.64-8.54-1.93-3.07-4.25-5.94-7.68-7.52-3.54-1.64-6.3-4.3-9.23-6.75-1.01-.84-1.66-1.93-2.16-3.12-1.21-2.89-2.36-5.81-3.66-8.67-1.37-3.02-2.59-6.06-4.61-8.82-2.63-3.59-3.73-7.96-4.51-12.33-.11-.65-.01-1.4.21-2.02,1.76-4.91,2.81-9.98,6.97-13.93,4.37-4.14,5.58-10.21,7.26-15.83.13-.43-.14-.96-.15-1.44-.08-2.19-.92-4.2-1.52-6.26-.74-2.54-.6-5.26-1.69-7.73-1.64-3.7-2.55-7.6-3.13-11.6-.45-3.08-1.74-5.74-4.15-7.9-3.15-2.83-4.83-6.76-6.2-10.54-2.38-6.57-3.46-13.47-1.52-20.48.15-.56.12-1.17.18-1.75.24-2.07.98-3.95,1.84-5.85,1.83-4.05,4.42-7.65,6.71-11.41,2.35-3.84,6.53-5.75,10.24-8.08.54-.34,1.32-.35,2-.44,9.61-1.31,7.69-1.6,15.76,3.03,5.15,2.96,6.66,7.86,6.32,13.03-.37,5.61-1.07,11.3-3.14,16.69-1.22,3.19-2.4,6.44-2.9,9.84-.64,4.34-1.51,8.7-.74,13.09.31,1.76.53,3.49.44,5.25-.09,1.9.13,3.75.84,5.49,4.04,9.85,4.97,20.51,8.11,30.6.06.19.07.38.11.58.85,4.52,1.62,9.06,3.55,13.31.81,1.77,1.68,3.63,1.72,5.59.07,4.4-.26,8.82,1.02,13.13.11.36.02.78.02,1.18.07,3.91-.29,7.89,1.26,11.62,2.15,5.19,1.85,10.79,2.75,16.18.5,2.98.57,6.05,1.52,8.95,1.46,4.46,2.09,9.2,4.58,13.3.95,1.56,1.28,3.31,1.26,5.08-.04,2.44.7,4.66,1.81,6.73,1.13,2.11,1.59,4.32,1,6.54-.87,3.28-.6,6.4.49,9.53.19.54.2,1.15.26,1.74.3,2.81.42,5.63,2.29,8.04.9,1.16,1.11,2.66,1.07,4.2-.08,3.23-.24,6.5.8,9.63.88,2.62.46,5.26.21,7.88-.09.88-.29,1.7-.05,2.59.49,1.82.44,3.7.39,5.57-.13,5.29,1.47,10.22,3.2,15.11.73,2.05,1.37,4.05,1.34,6.26-.04,2.65-.34,5.35.25,7.94.87,3.85.51,7.61-.29,11.37-.21.97-.34,1.92-.4,2.91-.37,5.89.09,11.8-.23,17.68-.18,3.37.17,6.6,1.01,9.83.24.93.19,1.94.24,2.92.24,4.42.52,8.83-1.43,13.02-.32.68-.25,1.54-.35,2.31-.55,4.25-.63,8.53-2.35,12.64-1.09,2.59-2.26,5.25-2.81,8.03-1.13,5.72-5.44,9.11-9.14,12.97-.26.27-.66.41-1.01.6-3.62,1.94-7.15,3.93-11.23,5.01-2.89.76-5.88,1.59-8.6,3-1.68.87-3.51,1.17-5.37,1.49-5.51.94-11.08,1.68-16.46,3.11-3.75,1-7.39.82-11.02.29-5.18-.75-9.02-3.84-12.31-7.84-5.32-6.45-5.77-14.05-5.02-21.72.36-3.69.8-7.37.95-11.09.09-2.2-.54-4.04-1.66-5.82-.63-.99-1.19-2.03-1.87-2.98-1.88-2.62-3.38-5.56-5.92-7.64-2.07-1.7-4.38-3.2-7.18-2.83-2.52.33-5.04.82-7.47,1.64-1.71.57-3.59,1.22-4.54,2.61-2.8,4.11-6.47,7.69-8.46,12.26-1.51,3.45-2.79,7.14-2.3,11.1.11.86-.06,1.76-.16,2.64-.78,7.04,1.74,13.01,5.85,18.55,3.62,4.88,7.53,9.56,10.33,15.01,1.4,2.74,3.33,5.3,6.08,6.66,3.93,1.95,7.27,4.65,10.56,7.4,3.44,2.87,7.58,4.91,10.3,8.65.59.81,1.47,1.27,2.35,1.74,2.66,1.44,5.19,3.2,8.43,3.14.53-.01,1.11.37,1.61.68,2.95,1.8,6.01,2.85,9.48,1.61.35-.12.81-.11,1.17,0,4.08,1.27,8.06.15,11.85-.97,5.14-1.52,10.15-3.57,15.07-5.71,3.32-1.44,6.4-3.42,9.58-5.18,1.11-.62,2.25-1.19,3.16-2.13,2.6-2.68,5.25-5.3,8.3-7.49.94-.67,1.64-1.68,2.43-2.56,3.2-3.53,5.57-7.9,10.14-10.04.09-.04.15-.12.23-.18,5.55-4.5,8.31-11.01,12.13-16.76.11-.16.15-.37.24-.54,1.43-2.7,1.78-5.84,3.27-8.49,1.48-2.62,2.32-5.39,2.77-8.31.45-2.9.7-5.83,2.19-8.48.41-.73.52-1.65.6-2.55.38-4.58.71-9.17,2.51-13.51.67-1.62.95-3.38,1.23-5.13.72-4.51.93-9.12,2.83-13.41,1.06-2.4.24-5.07.57-7.59.25-1.9-.09-3.66-.6-5.49-1.28-4.6-2.56-9.22-1.67-14.1.44-2.43.21-4.9-.37-7.26-1.22-4.97-1.17-9.89,0-14.83.25-1.07.34-2.15.02-3.2-1.23-4.08-.64-8.14.09-12.21.42-2.35.49-4.7-.02-7.03-.36-1.66-.31-3.3-.11-4.96.57-4.72.21-9.42-1.03-13.97-1.09-4.02-1.88-8.02-1.69-12.18.07-1.6-.23-3.11-.7-4.62-1.6-5.15-2.78-10.41-3.75-15.7-.51-2.8-1.8-5.44-1.82-8.31-.01-2.19-.43-4.3-.98-6.38-.31-1.16-.52-2.31-.42-3.48.22-2.81-.4-5.44-1.39-8.03-.52-1.37-1.03-2.78-1.28-4.22-.75-4.38-2.49-8.45-3.83-12.64-1.22-3.83-2.47-7.67-3.27-11.6-.63-3.05-.59-6.23-.86-9.35-.2-2.26-.62-4.45-1.91-6.4-1.8-2.72-2.4-5.78-2.19-8.98.11-1.72-.19-3.32-.81-4.89-2.4-6.05-3.83-12.28-3.35-18.84.29-3.94-.99-7.8-.58-11.74.39-3.7-.46-7.2-1.51-10.69-.53-1.78-.9-3.61-1.36-5.39-1.07-4.12-.66-8.33-1.24-12.46-.44-3.2-.89-6.42-.43-9.47,0-1.67.08-3.15-.01-4.62-.35-5.39,1.97-9.64,5.47-13.49,1.95-2.14,4.33-3.18,7.08-3.89,4.81-1.24,9.08-.26,13.21,2.29,3.75,2.32,7.4,4.84,11.37,6.79,2.84,1.4,5.43,3.1,7.68,5.37,1.31,1.31,2.93,2.31,4.69,3,2.63,1.03,4.76,2.73,6.54,4.88,1.84,2.21,3.86,4.15,6.66,5.15,1.53.55,2.7,1.72,3.56,3.01,4.45,6.61,6.69,13.89,6.24,21.91-.1,1.86-.11,3.69.36,5.55.47,1.86.8,3.76.42,5.77-.3,1.6-.52,3.31-.04,4.97.7,2.4.7,4.88.52,7.32-.26,3.53-.14,7.06-.17,10.59-.03,4.15.5,8.2,2.06,12.09.67,1.66.93,3.39.91,5.18-.02,2.06-.22,4.15.26,6.17.96,4.05,1.14,8.18.86,12.28-.23,3.3-.35,6.7-1.58,9.82-1.76,4.46-3.83,8.8-5.7,13.22-.57,1.35-1.44,2.37-2.76,2.89-4.52,1.79-7.3,5.85-11.21,8.47-2.61,1.74-3.23,4.77-2.41,7.94,1.17,4.5,3.33,8.25,8.01,9.74,2.41.77,4.99,1.08,7.55,1.15,8.07.22,14.09-4.11,19.82-9.03.07-.06.09-.18.16-.25,3.35-3.38,5.66-7.49,8.2-11.45.96-1.49,1.68-3.05,2.11-4.82.65-2.67,1.68-5.21,3.26-7.53,1.34-1.98,1.99-4.25,1.57-6.71-.06-.37-.11-.77-.05-1.14.8-4.5-.43-8.75-1.65-12.99-.32-1.13-.85-2.21-.87-3.41-.03-2.26-.42-4.51-.46-6.72-.06-3.52-.31-6.95-.85-10.43-.49-3.1,1.4-5.71,4.26-6.98,1.35-.59,2.7-1.2,4.07-1.73,2.61-1.02,5.02-.46,7.23,1.1,1.44,1.02,2.7,2.34,4.24,3.16,3.47,1.86,5.63,4.93,7.43,8.15,1.79,3.2,3.53,6.32,6.49,8.6.38.29.69.7.98,1.1,2.29,3.22,5.22,5.82,8.03,8.56,4.4,4.28,8.08,9.09,10.11,14.99.52,1.52,1.4,2.74,2.64,3.81,2.56,2.21,4.64,4.88,5.34,8.23.58,2.79,1.94,4.83,4.25,6.41,2.99,2.04,5.19,4.66,6.28,8.24.79,2.62,1.77,5.3,3.42,7.47,3.58,4.72,4.87,10.74,8.89,15.18.43.47.48,1.27.71,1.92.7,1.93,1.07,3.99,2.16,5.77,2.26,3.68,4.19,7.54,6.19,11.37,2.68,5.12,5.84,10,7.49,15.62.84,2.84,2.25,5.42,4.25,7.66.99,1.11,1.64,2.42,2.16,3.82,1.67,4.45,3.9,8.56,7.32,11.96.91.9,1.76,1.91,2.15,3.14.81,2.57,2.25,4.77,3.85,6.88,1.2,1.57,2.03,3.36,3.07,5.02,1.26,2.01,1.43,4.65,3.2,6.24,2.91,2.61,5.07,5.66,6.7,9.18.53,1.14,1.32,2.23,2.22,3.1,4.01,3.87,6.06,9.1,9.23,13.55,3.72,5.22,7.09,10.82,10.09,16.57.87,1.66,1.91,3.29,3.47,4.33,1.8,1.21,3,2.8,3.8,4.74.86,2.09,2.37,3.68,4.18,4.84,2.21,1.42,3.9,3.24,5.42,5.31.75,1.02,1.59,2,2.53,2.86,6.02,5.53,11.13,11.88,16.05,18.36,1.81,2.39,3.76,4.47,6.22,6.15,2.03,1.39,3.98,2.99,5.23,5.12,1.59,2.71,3.84,4.68,6.31,6.49.63.46,1.42.83,1.84,1.44,2.18,3.18,4.94,5.78,7.83,8.27,3.27,2.81,6.34,5.92,10.11,8.04,4.81,2.71,9.08,6.15,13.36,9.57,2.23,1.78,4.45,3.53,7.04,4.77,3.02,1.44,5.8,3.26,8.49,5.27,4.34,3.23,8.95,6.03,14.21,7.57.94.27,1.84.67,2.74,1.06,4.86,2.06,9.4,4.92,14.75,5.71.76.11,1.51.49,2.18.87,2.02,1.15,4.23,1.37,6.48,1.67,4.66.62,9.39.46,14.03,1.53,3.33.77,6.85.87,10.25.11,5.36-1.19,10.76-2.19,16.08-3.57,3.46-.9,6.73-2.09,9.64-4.19,1.3-.94,2.77-1.47,4.28-1.91,2.85-.83,5.66-1.78,7.75-4.01,1.44-1.54,3.17-2.28,5.18-2.45,1.56-.13,2.81-.85,3.9-1.88,2.57-2.45,5.53-4.39,8.46-6.36,1.82-1.23,3.41-2.62,4.61-4.48,1.17-1.82,2.54-3.48,4.38-4.7,1.24-.82,2.25-1.92,2.97-3.23,3.53-6.36,7.93-12.11,12.52-17.72.73-.9,1.37-1.96,1.73-3.05,1.79-5.4,5.03-10.16,6.73-15.62.79-2.53,1.96-4.9,1.71-7.64-.09-1.01.31-1.93.57-2.87.34-1.23.93-2.47.9-3.7-.1-5.67.78-11.39-.63-17.01-.15-.59-.23-1.12-.07-1.72.84-3.1-.25-5.78-1.89-8.33-.48-.74-.88-1.53-1.36-2.26-1.74-2.66-2.21-5.88-3.7-8.62-3.18-5.83-5.36-12.16-8.89-17.81-2.34-3.74-4.31-7.71-6.71-11.41-3.72-5.74-8.66-10.38-14.16-14.41-1.04-.76-2.02-1.51-2.83-2.54-2.75-3.54-6.38-6-10.06-8.48-3.6-2.42-7.26-4.61-11.39-5.97-.81-.27-1.48-.96-2.25-1.38-3.61-1.98-7.07-4.36-10.89-5.8-5.61-2.11-11.61-2.81-17.6-3.12-2.35-.12-4.71-.03-7.04-.49-2.35-.46-4.68-.33-6.97.33-4.12,1.18-8.29,1.29-12.5.63-.58-.09-1.13-.33-1.74-.17-3.51.91-7.17,1.24-10.57,2.57-1.77.69-3.58,1.03-5.43,1.18-1.38.11-2.74.25-4.03.76-1.67.65-3.25.37-4.8-.41-3.02-1.52-5.59-3.64-8.02-5.94-2.11-2.01-3.12-4.71-2.98-7.44.26-5.29,2.4-10.03,5.5-14.32.68-.93,1.63-1.53,2.67-1.71,3.51-.62,6.73-2.28,10.15-2.96,7.89-1.57,14.4-6.17,21.66-9.11.27-.11.51-.3.74-.48,4.05-3.22,8.62-5.84,11.76-10.14.5-.69,1.37-1.1,2.03-1.68,3.48-3.02,7.03-5.96,10.19-9.33,2.28-2.43,3.92-5.45,6.59-7.51,6.33-4.88,11.77-10.65,16.93-16.71,1.46-1.72,2.64-3.7,4.21-5.29,1.85-1.87,3.14-4.02,4.1-6.4,1.65-4.09,3.01-8.32,6.13-11.63.26-.28.42-.67.55-1.03.98-2.62,2.94-4.36,5.21-5.82.91-.59,1.92-1.09,2.65-1.86,3.57-3.74,8.84-4.57,12.81-7.62.62-.48,1.48-.45,2.27-.52,4.12-.41,8.23-.09,12.36-.02,7.12.11,13.16,2.62,18.43,7.3,2.77,2.46,6.1,3.91,9.63,4.92,1.88.54,3.46.12,4.78-1.39,1.49-1.71,3.24-3.15,5.16-4.37,3.81-2.41,5.56-6.13,5.85-10.38.26-3.79-.46-7.46-4.27-9.65ZM633.05,327.43c-.8,4.43-2.29,8.48-5.69,11.68-1.67,1.58-2.51,3.99-5.06,4.71-4.36,1.23-8.82,1.85-13.32,1.91-1.99.03-3.82-.84-5.24-2.37-1.47-1.59-3.04-3.09-4.39-4.76-2.2-2.74-2.07-6.04-1.91-9.3.18-3.85,1.32-7.3,4.39-9.9.29-.25.52-.59.75-.91,3.62-4.87,8.67-7.49,14.53-7.51,6.74-.08,14.06,4.28,15.91,12.36.31,1.36.28,2.72.04,4.09ZM1103.18,451.75c2.71-1.57,5.73-2.65,8.37-4.34,2.82-1.81,5.7-3.35,8.83-4.57,3.02-1.18,6-2.4,9.2-3.02,2.42-.47,4.77-1.21,6.92-2.44,1.67-.96,3.45-1.44,5.32-1.57,2.07-.14,4.1-.44,6.07-1.08.28-.09.6-.22.86-.16,5.24,1.2,10.78-.89,15.94,1.47,1.22.56,2.63.8,3.98,1,2.66.39,5.17,1.15,7.49,2.51,1.39.82,2.96,1.03,4.52,1.21,2.2.26,4.18.96,5.95,2.32,1.65,1.26,3.56,2.07,5.48,2.81,2.11.82,3.51,2.27,4.63,4.28,2.22,3.95,3.97,8.08,5.39,12.37.37,1.11.67,2.23.66,3.44-.04,4.49-.03,8.99,0,13.48.01,2.55.02,5.08.34,7.63.26,2.09.4,4.25-.14,6.38-.65,2.59-.44,5.25-.14,7.85.66,5.65-.41,11.13-1.33,16.64-.03.19-.11.39-.21.55-3,4.65-4.09,10.27-7.98,14.55-2.95,3.25-6.09,6.36-8.76,9.91-2.01,2.66-5.07,4.56-7.75,6.69-1.3,1.03-2.7,1.87-3.83,3.17-1.28,1.48-2.98,2.55-4.86,3.22-5.73,2.03-11.55,3.67-17.57,4.67-3.76.62-7.43,1.76-11.12,2.77-1.64.45-3.25.85-4.91.35-3.54-1.08-7.21-.91-10.81-.88-4.01.04-8.03-.1-12.05.13-3.63.21-7.24-.25-10.74-1.43-1.47-.49-3.06-.68-4.61-.87-3.06-.36-6.03-1.1-8.64-2.7-5.6-3.42-11.39-6.62-15.77-11.7-.44-.51-.99-.97-1.55-1.35-6.36-4.34-11.78-9.75-17.24-15.11-3.15-3.09-6.45-6.07-8.85-9.84-.37-.58-.92-1.09-1.12-1.72-1.97-6.25-7.19-10.18-10.8-15.26-.53-.75-1.25-1.3-2.06-1.63-2.17-.89-3.34-2.6-4.29-4.62-2.74-5.83-6.56-10.82-11-15.51-3.53-3.71-7.57-6.47-11.89-9.02-3.54-2.09-7.16-4.05-10.09-7.06-3.84-3.94-6.93-8.26-7.81-13.83-.49-3.13-1.32-6.07-2.94-8.86-1.07-1.84-1.64-3.98-2.38-6.01-.92-2.54-2.16-4.78-4.41-6.45-2.31-1.72-3.43-4.52-5.42-6.57-2.01-2.07-3.29-4.59-4.27-7.3-1.15-3.17-3.13-5.88-5.21-8.49-1.3-1.63-2.39-3.32-3.06-5.31-.43-1.29-1-2.59-1.77-3.71-2.95-4.29-5.01-9.1-7.84-13.46-.53-.81-.88-1.74-1.31-2.62-1.2-2.49-2.55-4.81-4.69-6.69-2.91-2.55-5.1-5.67-6.49-9.33-.45-1.19-1.05-2.33-1.72-3.42-4.43-7.26-7.12-15.27-9.9-23.22-.47-1.33-.84-2.77-.32-4.32.52-1.54-.23-3.1-.51-4.62-.36-1.96-.39-3.87-.12-5.83.2-1.45.24-2.93.23-4.39-.03-4.71-.29-9.42.5-14.1.3-1.78-.28-3.51-.57-5.25-.42-2.54-.61-5.06-.06-7.59.06-.28.13-.61.06-.88-1.29-4.88.49-9.72.2-14.59-.2-3.33.73-6.63.4-9.97-.35-3.56.24-6.98.98-10.44.43-1.99.51-4.11.36-6.15-.36-5.14,2.3-9.05,5.24-12.69,1.65-2.04,4.37-2.97,6.99-3.4,2.46-.41,5.5,1.61,6.59,4.09,1.42,3.25,2.4,6.62,2.26,11.1-.44,2.26-.23,5.31.68,8.39.4,1.35.01,2.92.05,4.4.12,4.96-.99,9.98.61,14.88,1.28,3.91,2.52,7.83,3.84,11.73.44,1.31.89,2.59.98,3.98.16,2.51,1.41,4.58,2.44,6.81,1.73,3.77,4.19,6.92,6.67,10.19,4.89,6.45,10.49,12.15,16.37,17.62.86.8,1.72,1.62,2.55,2.45,2,2.02,3.9,4.11,6.36,5.64,1.84,1.15,3.04,3.05,4.44,4.69,2.78,3.24,5.77,6.11,9.89,7.65,2.53.94,4.47,2.83,6.37,4.67,1.3,1.25,2.72,2.25,4.4,2.89,2.05.78,3.67,2.16,5.39,3.5,3.16,2.47,6.4,4.99,9.98,6.75,4.88,2.41,8.16,6.42,11.53,10.31,1.96,2.26,1.85,5.53,2.08,8.44.31,3.76-.2,7.23-2.34,10.67-2.47,3.97-3.67,8.64-5.25,13.06-.32.89-.2,1.94-.21,2.92,0,.88.29,1.79.14,2.63-.74,3.97.84,7.54,1.79,11.22.31,1.18,7.54,12.65,8.51,13.32,1.35.93,2.31,2.17,3.02,3.56,1.04,2.03,2.71,3.33,4.6,4.41,3.59,2.05,6.89,4.51,10.26,6.89,3.23,2.27,6.92,3.66,10.7,4.79.19.06.39.14.57.12,3.89-.4,7.84-.15,11.7-.6,6.92-.8,13.09-3.77,19.07-7.23Z"/>
  <path class="cls-1" d="M559.97,125.5c3.54,2.06,7.52,2.54,11.34,2.74,6.18.33,12.32,1.05,18.48,1.29,4.06.16,7.84,1.03,11.75,1.77,4.7.89,9.43.33,12.9-3.8,1.26-1.5,2.63-2.91,4.01-4.31,1.05-1.06,1.41-2.3,1.38-3.74-.09-3.77-1.52-7.04-3.55-10.13-4.47-6.81-11-10.75-18.51-13.33-.55-.19-1.18-.34-1.73-.26-5.49.78-10.96-.32-16.45-.05-2.55.13-5.04.81-7.62.61-4.16-.32-7.97.77-11.51,2.94-1.71,1.05-3.54,1.58-5.6,1.45-1.95-.12-3.88.05-5.82.57-3.13.84-6.24.36-9.17-1.06-2.39-1.15-4.78-2.3-7.15-3.48-1.35-.67-2.35-1.68-3.14-3-4.49-7.56-3.11-15.24-.54-22.94.33-1,1.11-1.83,1.87-2.62,2.27-2.35,4.79-4.42,7.58-6.04,4.44-2.58,6.83-6.62,8.69-11.15.85-2.07.35-3.82-1.16-5.37-3.16-3.21-6.86-3.7-11.08-2.43-4.61,1.39-8.92,3.55-13.48,5.08-4.65,1.55-9.4,2.81-13.93,4.72-6.07,2.56-12.44,2.05-18.8,1.73-2.55-.13-5.03-1.16-7.59-.85-3.04.37-5.76-.45-8.01-2.24-4.27-3.41-9.15-3.76-14.23-3.44-3.37.22-5.9,2.13-6.46,5.04-.67,3.47-.49,6.9,2.01,9.72,2.53,2.87,4.72,6.04,7.54,8.65,1.16,1.07,2.11,2.31,2.99,3.62,1.68,2.49,1.87,5.12.72,7.84-.8,1.89-1.73,3.74-2.57,5.61-1.44,3.23-4.08,5.16-7.39,5.72-3.46.59-7,1.26-10.53.88-2.77-.29-5.5-.06-8.23.15-1.38.11-2.7.18-4.07-.04-4.67-.75-9.34-.91-14.05-.09-3.97.69-7.98.75-11.98-.13-2.43-.53-4.87-.43-7.15.78-2.49,1.32-5.11,1.95-7.95,1.77-1.61-.1-3.23.29-4.41,1.36-3.7,3.34-7.34,6.76-10.89,10.24-1.25,1.23-2.16,2.79-3.3,4.13-3.15,3.67-4.49,7.61-2.72,12.46,1.37,3.74,5.51,7.29,9.49,7.12,3.22-.14,6.47-.4,9.62-1.04,6.53-1.33,12.97-3.13,19.65-3.71,1.2-.1,2.41-.23,3.49.17,3.41,1.29,6.93,1.18,10.46,1.08.98-.03,1.99-.12,2.94.06,2.2.41,4.27.03,6.35-.61,1.79-.55,3.6-1.1,5.5-.89,4.6.5,9.24-.02,13.82.6,1.77.24,3.52.03,5.27-.19,1.68-.21,3.31-.2,4.97.18,1.24.28,2.52.55,3.78.54,3.82-.01,7.32,1.34,10.87,2.41,2.37.72,4.39,2.13,5.66,4.44.51.93,1.19,1.82,1.94,2.58,2.71,2.76,3.74,6.11,3.75,9.89,0,1.67.08,3.34.2,5,.45,6.5,2.04,13,.02,19.51-.08.27,0,.59-.03.88-.35,4.63.63,9.19.64,13.8,0,.66.19,1.39.5,1.98,1.07,2.03,1.67,4.15,1.85,6.44.08,1.04.49,2.13,1.01,3.05.5.89.81,1.8.94,2.76.54,3.79,1.05,7.61.72,11.43-.39,4.48-.86,8.91-.6,13.44.24,4.18-.71,8.37.03,12.57.13.74-.15,1.55-.19,2.33-.18,3.92-.66,7.86-.05,11.74.37,2.36.55,4.69.43,7.03-.15,2.95-.15,5.87,0,8.82.11,2.15.13,4.35-.22,6.46-.38,2.31-.13,4.44.57,6.63.89,2.78,1,5.56-.15,8.34-.68,1.64-1.08,3.45-.66,5.19.5,2.02-.08,3.88-.47,5.77-.27,1.34-1.03,2.61-1.14,3.95-.24,3.1-1.87,5.47-3.5,7.95-2.39,3.63-5.26,4.79-9.94,3.3-3.07-.98-6.2-1.89-9.04-3.49-2.32-1.3-4.66-1.32-7.04-.13-1.41.7-2.86,1.31-4.3,1.92-3.23,1.37-5.63,3.73-6.98,6.85-2.33,5.43-7.02,8.21-11.64,11.16-.16.1-.34.21-.53.26-4.99,1.2-9.6,3.99-15.07,3.27-1.29-.17-2.72-.13-4.06-.27-1.79-.19-3.55-.18-5.26.33-1.99.6-3.88.45-5.76-.32-2.35-.97-4.77-1.14-7.17-.38-1.74.56-3.51.62-5.25.44-2.26-.22-4.52-.29-6.77-.17-5.05.26-9.4-.98-13.07-4.74-2.87-2.95-4.91-6.39-5.18-10.28-.59-8.52,0-17.03,2.89-25.21.24-.67.38-1.33.39-2,.03-2.47.56-4.84,1.24-7.21.68-2.37,1.24-4.92.3-7.25-1.69-4.22-2.24-8.72-3.67-13-.71-2.12-1.31-4.3-1.31-6.61,0-7.07-2.61-13.4-5.84-19.5-.97-1.83-1.94-3.62-2.54-5.6-1.06-3.51-2.58-6.77-5-9.57-1.49-1.72-2.52-3.68-3.38-5.81-1.2-2.98-2.08-6.07-3.81-8.9-2.76-4.5-5.83-8.85-7.88-13.78-.37-.89-.91-1.77-1.55-2.49-2.44-2.77-3.92-6.08-5.46-9.37-1.99-4.23-4.55-8.2-5.69-12.8-.02-.09-.08-.18-.14-.26-1.1-1.56-1.59-3.34-1.98-5.18-1.01-4.8-2.25-9.54-4.22-14.05-1.42-3.25-2.35-6.65-2.57-10.19-.11-1.78-.21-3.54-.81-5.21-1.56-4.32-2.63-8.77-3.76-13.22-1.21-4.77-.89-9.49-1.08-14.24-.13-3.05,1.06-6.07.58-9.08-.63-3.94.45-7.81.14-11.72-.04-.55.19-1.18.47-1.67,3.45-6.22,4.52-13.32,7.31-19.8,1.81-4.21,4.11-8,6.81-11.63,1.25-1.67,3.03-2.8,4.3-4.41,4.35-5.49,9.81-9.56,16.23-12.24,4.9-2.04,10.15-2.9,15.33-3.98,1.81-.38,3.58-.23,5.22.35,2.6.93,5.33,1.38,7.9,2.3,3.48,1.26,7.1,2.37,9.4,5.68.72,1.03,1.7,2,3.01,2.27,2.83.59,5.35,1.89,7.88,3.18,2.12,1.08,4.17.84,6.17-.39,3.76-2.31,6.65-5.2,6.77-9.98.01-.59.07-1.18.21-1.75.81-3.2-.19-6-1.86-8.65-1.55-2.46-4.18-3.86-6.06-5.9-3.12-3.38-6.7-5.94-10.55-8.33-1.43-.89-2.81-1.71-4.39-2.3-5.26-1.99-10.81-2.92-16.23-4.14-4.99-1.12-10.16-.64-14.6,2.65-2.57,1.91-5.57,2.83-8.64,3.52-2.36.53-4.37,1.56-6.21,3.14-1.71,1.46-3.2,3.19-5.18,4.34-3.55,2.06-6.19,5.02-8.64,8.28-3.54,4.72-7.81,8.79-12.54,12.31-1.71,1.27-3.16,2.63-4.02,4.55-.79,1.75-1.93,3.3-3.47,4.33-3.13,2.1-5.39,5.12-8.27,7.47-2.22,1.82-5.62,2.43-7.96.87-2.19-1.46-4.45-2.83-6.5-4.54-1.98-1.65-3.21-3.67-4.15-5.96-.48-1.18-.83-2.41-1.33-3.58-1.6-3.77-2.69-7.81-5.86-10.76-3.45-3.21-6.38-6.9-9.58-10.34-2.17-2.32-4.75-4.08-6.94-6.23-3.74-3.69-8.12-5.98-12.77-8.17-5.04-2.37-9.77-5.39-15.06-7.26-4.11-1.46-8.23-2.58-12.66-1.6-1.94.43-3.9.23-5.86-.12-5.38-.95-10.7-1.14-15.87,1.16-5.53,2.46-11.86,2.82-16.98,6.4-.7.49-1.63.66-2.47.92-2.1.65-3.91,1.66-5.48,3.29-1.21,1.25-2.68,2.34-4.44,2.81-3.35.89-6.45,2.34-9.36,4.22-1.74,1.12-3.6,2-5.52,2.76-2.39.95-4.46,2.4-6.55,3.89-2.1,1.49-3.59,3.64-5.81,4.96-2.44,1.45-4.83,2.99-7.22,4.53-1.24.8-2.45,1.63-3.44,2.75-4.09,4.61-7.89,9.5-13.16,12.91-.33.21-.62.49-.86.8-4.23,5.33-10.21,8.87-14.54,14.1-1.77,2.14-3.94,3.8-6.23,5.33-.32.22-.68.45-.89.76-2.29,3.43-5.41,6.12-8.06,9.21-2.19,2.56-3.91,5.6-5.92,8.38-1.61,2.22-3.09,4.57-4.28,7.03-1.12,2.31-2.41,4.46-3.99,6.48-2.67,3.42-5.01,7.02-5.83,11.4-.12.65-.44,1.36-.88,1.84-2.35,2.52-4.26,5.38-6.42,8.03-1.88,2.3-3.55,4.68-4.66,7.44-1.31,3.27-2.5,6.59-4.11,9.75-2.82,5.5-6.14,10.71-9.17,16.09-1.7,3.01-3.31,6-3.94,9.42-.22,1.19-.64,2.26-1.33,3.23-2.88,4-4.79,8.54-7.19,12.81-2.8,4.99-4.15,10.55-5.82,15.99-.88,2.87-1.45,5.69-1.24,8.66.11,1.61-.27,3.13-.86,4.59-1.03,2.57-1.53,5.26-2.05,7.96-.56,2.87-.37,5.89-1.7,8.62-1.91,3.92-2.57,8.22-3.66,12.39-.17.65-.44,1.27-.26,2.01.8,3.34-.23,6.42-1.62,9.38-.68,1.46-.95,2.93-1.12,4.52-.44,4.16-.5,8.41-2.61,12.23-.71,1.3-.99,2.77-.89,4.28.1,1.49-.12,2.91-.76,4.3-.85,1.83-1.11,3.72-.32,5.7.55,1.38.41,2.8.19,4.31-.44,2.99-.72,6.05-.61,9.06.18,4.88.7,9.76,1.13,14.63.16,1.86.49,3.69,1.74,5.22,1.18,1.44,2.34,2.9,3.41,4.43.75,1.08,1.65,2.03,2.81,2.54,2.53,1.12,4.68,3.12,7.2,3.95,4.03,1.32,6.61,4.09,9.54,6.83,2.34,2.19,2.71,4.28,2.14,7.02-.16.76-.18,1.55-.32,2.32-.24,1.37-.63,2.65-1.66,3.69-1.18,1.18-2.28,2.44-3.39,3.68-1.01,1.13-2.21,1.83-3.74,2.17-2.99.66-6.02.83-9.04,1.09-6.14.55-10.2,3.53-12.58,9.44-1.48,3.69-1.57,7.45-2.14,11.18-.39,2.49-.85,5.08-.41,7.61.55,3.13.53,6.25.52,10.29-.94,3.24.71,7.31.38,11.42-.26,3.28.8,6.19,2.33,8.98.76,1.38,1.6,2.76,1.85,4.31.83,5.23,2.7,10.21,3.38,15.49.94,7.31,3.8,14.17,5.76,21.24,1.09,3.96,2.01,8.01,3.87,11.72,1.36,2.69,2.24,5.67,4.53,7.83,3.54,3.35,6.11,7.48,8.37,11.68,2.85,5.33,6.95,9.73,10.16,14.76.37.57.88,1.06,1.36,1.55,2.61,2.64,5.48,5.06,7.02,8.59.23.52.64,1.01,1.08,1.39,3.41,3,5.53,7.11,8.8,10.24,1.35,1.29,2.31,2.89,3.2,4.55.92,1.72,1.92,3.41,3.06,5.02,4.18,5.89,9.8,10.69,13.07,17.26.09.17.21.33.32.49,1.79,2.46,3.7,4.84,5.33,7.4,1.59,2.5,3.67,4.35,6.33,5.53,1.54.68,2.92,1.6,4.4,2.37,4.45,2.33,8.27,5.64,12.58,8.17,2.29,1.34,4.58,2.65,6.62,4.37,1.05.88,2.31,1.44,3.52,2.1,4.93,2.66,10.35,4.32,15.1,7.29,2.36,1.48,4.77,2.19,7.47,2.2,1.31,0,2.56.21,3.65.95,2.1,1.42,4.38,2.06,6.93,2.1,1.34.02,2.7.47,4,.89,1.15.37,2.29.46,3.48.49,4.4.12,8.81.47,13.13-.73.55-.15,1.17-.14,1.76-.13,1.78.02,3.49-.31,5.22-.77,4.39-1.17,8.84-1.74,13.4-.99,3.4.55,6.81.89,10.26.29.86-.15,1.8-.19,2.65-.01,4.82,1.01,9.49.73,14.12-1.03,1.23-.47,2.81.03,4.06-.4,3.9-1.34,7.85-2.49,11.79-3.69,1.2-.36,2.34-1.05,3.36-1.79,1.36-.99,2.87-1.69,4.3-2.55,2.85-1.71,6.05-2.79,8.69-4.91,5.18-4.18,9.23-9.38,12.92-14.8,2.74-4.03,6.16-6.82,10.76-8.15,4.71-1.36,9.56-.74,13.77,1.19,5.5,2.52,10.28,6.44,14.84,10.48,1.63,1.45,3.38,2.71,5.34,3.63,1.54.72,2.86,1.61,3.97,2.94,1.06,1.27,2.17,2.58,3.83,3.14,1.91.65,3.5,1.86,4.92,3.17,3.58,3.28,7.84,5.51,11.81,8.21,3.4,2.31,7.23,3.48,11.19,4.3,1.93.4,3.92.72,5.63,1.66,6.53,3.59,13.65,3.49,20.68,3.07,7.69-.46,15.03-2.56,21.82-6.45,4.21-2.42,8.05-5.26,11.29-8.85,2.49-2.77,5.26-5.29,7.36-8.41.58-.87,1.52-1.53,2.38-2.17,2.24-1.66,3.9-3.82,5.61-5.99,1.99-2.52,3.5-5.54,6.31-7.28,1.88-1.16,3.4-2.64,4.94-4.15.7-.69,1.37-1.41,2.26-1.87,1.93-1,3.16-2.6,3.95-4.59.76-1.93,1.74-3.75,3.05-5.35,1.71-2.07,2.98-4.39,4.04-6.82.95-2.18,2.15-4.21,3.55-6.09,1.2-1.62,2.12-3.35,2.51-5.27,1.02-5.01,3.37-9.37,6.12-13.59,2.78-4.25,5.88-8.35,6.75-13.6.25-1.52,1.17-2.89,2.19-4.13,1.64-2,2.77-4.24,3.44-6.77,1.87-7.04,4.49-13.79,8.21-20.09,1.34-2.27,3.06-4.34,3.69-6.99.86-3.63,1.73-7.25,3.78-10.45.31-.48.5-1.1.56-1.67.42-4.02,1.69-7.84,2.55-11.76.74-3.36,1.48-6.68,3.32-9.67,1.3-2.12,1.82-4.55,2.16-6.99.34-2.46,1.09-4.8,2.28-6.94,1.02-1.83,1.4-3.68.93-5.65-.52-2.15-.08-4.1.95-5.94,2.2-3.93,2.73-8.36,3.47-12.65.79-4.61.77-9.33,3.21-13.59,1.54-2.69,1.4-5.83,1.74-8.86.56-4.85,1.69-9.63,1.48-14.58-.09-1.94.47-3.87,1.23-5.7,1.25-3.01,2.06-6.15,2.24-9.4.24-4.42.85-8.83,2.13-13.01,1.35-4.41,2.11-8.95,3.49-13.35,1.3-4.12,2.11-8.38.9-12.73-.48-1.72-.37-3.44-.1-5.22.27-1.81.31-3.72-.13-5.57-.21-.87-.21-1.74.04-2.62.83-2.88.74-5.79.01-8.67-.22-.88-.26-1.75-.15-2.63.5-4.1.67-8.2.39-12.32-.13-1.86-.2-3.74.17-5.58.78-3.92.12-7.84-.36-11.67-.36-2.87-.52-5.64-.1-8.46.4-2.64.67-5.3.14-7.9-.39-1.93-.16-3.7.3-5.51.94-3.7.85-7.37-.2-11.04-.67-2.35-1.31-4.67-.52-7.19.44-1.41.2-2.95-.61-4.27-1.62-2.64-2.37-5.59-3.21-8.51-.98-3.41-1.84-6.92-1.29-10.44.65-4.16-.16-8.21-.38-12.3-.11-1.97-.28-3.86.11-5.81.77-3.82,1.46-7.59.97-11.61-.37-3.03,1.05-5.92,3.26-8.23.81-.85,1.63-1.72,2.31-2.66,1.31-1.8,3.03-2.99,5-3.99,4.47-2.26,8.89-4.62,14.07-4.75.19,0,.38-.09.56-.17,4.56-2.09,9.43-2.6,14.35-2.78,2.83-.1,5.82-.63,8.4.87ZM55.7,466.41c-.62,2.24-.71,2.28-3.01,2.34-.69.02-1.37,0-2.06,0-.59,0-1.18,0-1.77,0-2.94-.04-3.97-.55-4.74-3.36-1.25-4.52-3.79-8.3-6.29-12.13-1.29-1.98-2.05-4.05-2.44-6.47-.65-4.1-1.78-8.08-2.03-12.3-.14-2.39-1.78-4.71-2.19-7.24-.32-2-1.04-3.93-.6-6.03.23-1.09.66-2.07,1.26-2.94,1.76-2.54,4.59-2.58,6.61-.24,1.06,1.23,1.93,2.61,2.08,4.15.43,4.44,3.07,7.82,5.44,11.22,1.94,2.78,3.18,5.48,2.62,8.89-.2,1.2.38,2.32.88,3.37.89,1.87,1.67,3.75,2.08,5.79.34,1.68,1.45,2.96,2.43,4.32,2.33,3.24,2.79,6.83,1.73,10.63ZM482.41,372.49c-1.8,4.07-2.77,8.35-3.69,12.68-.94,4.4-1.63,8.9-2.9,13.17-1.2,4.01-1.99,8.17-3.4,12.05-2.14,5.9-2.74,12.02-3.88,18.07-.09.48-.12,1-.32,1.43-1.73,3.64-2.68,7.57-4.21,11.28-1.84,4.45-3.13,9.07-4.58,13.65-1.06,3.37-2.01,6.75-2.79,10.2-.51,2.27-1.42,4.47-3.1,6.27-.79.84-1.44,1.91-1.84,2.99-1.26,3.4-2.68,6.73-4.2,10.02-.7,1.51-1.21,3.1-2.14,4.51-.71,1.08-1.3,2.34-1.31,3.55-.02,3.55-1.78,6.4-3.43,9.28-1.62,2.82-3.04,5.68-4.02,8.8-1.08,3.49-3.1,6.57-5.04,9.63-1.45,2.28-2.53,4.66-3,7.29-.23,1.3-.67,2.48-1.47,3.48-1.92,2.38-3.46,4.93-4.64,7.78-1.97,4.77-5.97,7.96-9.56,11.42-2.75,2.65-5.96,4.8-8.61,7.56-.85.89-1.91,1.47-3.07,1.62-3.64.48-6.64,2.38-9.6,4.29-2.22,1.43-4.55,2.19-7.14,2.49-2.23.26-4.52.54-6.64,1.23-5.57,1.81-10.86.4-16.18-1-4.09-1.08-7.7-3.43-11.82-4.48-1.43-.37-2.57-1.43-3.5-2.61-.61-.78-1.24-1.53-2.13-2-4.15-2.19-6.7-5.87-9.31-9.59-2.92-4.17-5.12-8.83-8.61-12.63-.77-.84-1.38-2-1.63-3.1-1.02-4.61-3.88-8.62-4.25-13.43-.05-.66-.39-1.32-.72-1.92-1.99-3.67-3.05-7.52-3.46-11.73-.44-4.49-1.23-8.93-.94-12.57-.02-4.81-.05-8.7.43-12.63.43-3.56-.26-7.25.14-10.87.2-1.75.35-3.51.63-5.25.14-.86.27-1.86.78-2.51,2.92-3.67,3.21-8.36,4.97-12.47,2.33-5.43,4.59-10.94,9.28-14.83,4.1-3.4,8.42-6.51,14.15-6.42.39,0,.8-.03,1.16-.17,3.16-1.19,6.49-1.13,9.76-1.57,4.41-.59,8.42.26,12.35,1.75,3.14,1.19,6.28,2.12,9.58,2.71,2.98.54,6,1.25,8.8,2.39,4.64,1.89,9.42,2.52,14.34,2.58,1.17.01,2.39-.02,3.51.28,4.55,1.19,8.74-.03,12.87-1.71,1.28-.52,2.61-.86,3.9-1.3,6.57-2.22,11.82-6.18,15.06-12.38,2.34-4.47,1.9-9.32,1.06-14.09-.26-1.45-1.23-2.63-2.15-3.81-1.59-2.03-3.62-3.59-5.45-5.37-1.72-1.68-3.9-1.86-6.06-1.27-4.55,1.23-9.1,2.5-12.66,5.9-1.22,1.16-2.7,2-4.3,2.5-2.99.94-6.04,1.68-8.89,3.04-.76.36-1.78.6-2.58.42-4.01-.9-8.03-.18-12.04-.23-3.26-.04-6.49-.17-9.56-1.42-1.43-.58-2.92-.42-4.37-.5-2.88-.17-5.6-.88-8.3-1.8-.55-.19-1.16-.47-1.7-.39-4.48.65-8.93-.42-13.46.13-4.46.54-8.61,1.85-12.79,3.22-.56.18-1.09.54-1.65.61-5.79.71-10.69,3.82-15.96,5.91-2.81,1.11-5.06,3.32-7.64,4.93-7.01,4.36-13.29,9.67-19.05,15.59-1.81,1.86-2.71,4.32-4.23,6.36-3.1,4.17-5.6,8.64-8.02,13.25-3.21,6.11-6.25,12.17-7.57,19-.74,3.82-2.28,7.27-5.03,10.15-1.01,1.06-1.88,2.28-2.67,3.51-1.36,2.09-3.31,3.31-5.63,3.99-2.55.75-4.91,1.76-7.15,3.31-2.89,2-6.02,3.71-9.19,5.26-2.82,1.38-4.92,3.53-7.07,5.67-.6.6-1.1,1.46-1.3,2.28-1.32,5.44-1.23,10.79,2.33,15.4,2.61,3.39,4.54,7.08,6.28,10.94.7,1.56.94,3.23,1,4.85.08,2.27.42,4.48.81,6.7.98,5.61-1.14,10.6-3.39,15.5-.52,1.13-1.73,1.86-2.88,2.47-5.58,2.98-11.59,4.82-17.64,6.48-2.07.57-4.33.48-6.44-.04-3.62-.9-7.24-.41-10.85-.21-2.56.14-5.08.32-7.63-.07-2.82-.43-5.64.47-8.49-.03-3.08-.54-6.13-1.2-9.28-1.41-1.6-.1-3.21-.88-4.57-1.92-2.18-1.67-4.69-2.49-7.39-2.58-4.6-.15-8.25-2.26-11.49-5.29-1.44-1.35-2.96-2.56-4.71-3.5-1.74-.93-3.37-1.98-4.85-3.31-2.13-1.92-4.61-3.33-7.29-4.34-1.79-.68-3.01-1.94-4.37-3.29-3.86-3.83-6.84-8.34-10.37-12.42-.51-.59-1.09-1.2-1.35-1.91-1.39-3.78-4.21-6.6-6.44-9.81-.44-.63-1.05-1.17-1.67-1.64-1.11-.86-2.08-1.88-2.71-3.08-2.96-5.59-6.91-10.45-10.99-15.22-1.16-1.36-2.04-2.92-2.74-4.52-.83-1.9-1.87-3.65-3.03-5.34-1.11-1.63-2.08-3.35-2.6-5.25-.66-2.4-1.84-4.5-3.27-6.5-1.84-2.56-2.17-5.65-2.97-8.56-.65-2.36-1.17-4.75-2.62-6.82-.68-.97-.98-2.16-1.03-3.35-.2-4.8-1.82-9.19-3.76-13.51-2.13-4.75-3.94-9.6-4.39-14.85-.14-1.63-1.08-2.94-2.03-4.19-1.97-2.6-3.04-5.46-2.85-8.75.08-1.49-.22-2.97-.8-4.3-.85-1.96-.91-3.97-1-6.04-.17-4.01-.55-8-.83-12.01-.08-1.17-.11-2.35-.11-3.53,0-5.53-.84-10.88-2.81-16.1-1.88-4.97-2.35-10.25-2.55-15.55-.13-3.32-.17-6.65-1.17-9.89-.43-1.39-.67-2.89-.71-4.34-.06-1.71-.42-3.32-1.06-4.85-.77-1.84-1.18-3.71-1.27-5.69-.18-4.01-.58-8.02-.5-12.05.04-1.81.29-3.5,1.04-5.14.78-1.71,1.19-3.43.84-5.38-.26-1.44.28-2.91,1.05-4.2.51-.85,1.13-1.69,1.11-2.69-.08-4.02,1.21-7.97.58-12.02-.13-.86-.1-1.78.04-2.64,1.23-7.54.46-15.04-.41-22.54-.15-1.27-.43-2.66.07-3.8,1.55-3.54,1.39-7.27,1.55-10.97.2-4.59,1.72-8.83,3.55-12.94.93-2.08,1.76-4.18,2.05-6.41.31-2.38,1.05-4.56,2.07-6.7.81-1.7,1.28-3.52,1.22-5.4-.06-2.23.49-4.26,1.54-6.2.95-1.76,1.54-3.61,1.43-5.64-.07-1.31.32-2.55.71-3.75.84-2.63,1.24-5.3,1.6-8.04.39-2.97,1.22-6.06,2.66-8.66,2.04-3.69,2.9-7.69,4-11.62,1.17-4.17,3.47-7.89,4.42-12.12.23-1.05.7-2.05.89-3.1.51-2.93,1.8-5.52,2.96-8.23,1.68-3.93,3.4-7.93,3.93-12.27.12-.96.2-2.06.71-2.83,2.54-3.8,2.69-8.36,4.15-12.49,1.88-5.35,3.53-10.8,6.25-15.83.84-1.55,1.69-3.09,2.08-4.86.39-1.76,1.4-3.23,2.6-4.55,1.55-1.7,2.62-3.65,3.31-5.84.59-1.88,1.42-3.64,2.57-5.27.68-.95,1.43-2,1.64-3.1.65-3.37,2.87-5.74,4.88-8.26.61-.77,1.36-1.49,1.74-2.36,2.34-5.32,6.77-9.1,10-13.76.33-.47.76-.92,1.24-1.24,5.6-3.67,9.81-8.69,13.74-13.99.82-1.11,1.85-2.03,3.03-2.77,2.49-1.58,4.87-3.32,7.02-5.34,1.93-1.81,4.18-2.89,6.74-3.42,2.82-.58,5.34-1.85,7.93-3.08,4.65-2.21,9.03-5.15,14.48-5.35,1.93-.07,3.81-.92,5.52-1.93,1.48-.88,3.12-1.37,4.8-1.11,3.72.59,7.21-.53,10.73-1.3,2.35-.51,4.65-.73,6.99-.17,1.36.33,2.72.33,4.09.1,3.03-.51,6.05-.46,9.03.35.57.15,1.16.29,1.74.31,4.08.11,7.69,1.14,10.45,4.46.85,1.02,2.35,1.36,3.66,1.82,2.57.91,4.61,2.47,6.12,4.81,1.54,2.39,3.31,4.63,4.99,6.92,1.4,1.92,1.87,4.03,1.38,6.37-.24,1.15-.63,2.33-.54,3.47.54,7.03-2.81,13.14-4.58,19.61-.59,2.17-1.49,4.26-2.26,6.38-.77,2.11-.68,4.28-.27,6.4.57,2.98,1.5,5.88,2.62,8.7,1.29,3.27,3.81,5.42,6.83,6.99,1.05.54,2.07,1.04,3,1.81,1.4,1.15,3.08,1.65,4.93,1.65,5.19,0,10.1,1.2,14.79,3.38.8.37,1.58.83,2.43,1.05,4.78,1.26,6.56,5.14,7.64,9.26.89,3.38,1.77,6.81,2.08,10.36.25,2.93,1.43,5.72,2.56,8.41,1.85,4.41,2.81,8.94,3.06,13.66.01.2-.04.42.02.59,2.24,5.62,2.92,11.73,5.93,17.17,2.16,3.9,4.27,7.9,5.6,12.24.95,3.1,2.43,6.01,4.06,8.81,1.8,3.09,3.04,6.36,3.78,9.83.64,3.01,1.72,5.87,3.22,8.5,2.05,3.61,3.77,7.29,4.74,11.33.69,2.87,1.77,5.61,3.19,8.22.37.68.71,1.42.85,2.18.66,3.46,1.35,6.92,1.81,10.42.38,2.89-.5,5.64-1.72,8.24-1.91,4.07-7.65,5.06-10.49,1.59-2.27-2.78-4.88-5.08-7.71-7.21-.88-.66-1.6-1.48-2.04-2.48-1.27-2.89-3.44-5-5.91-6.82-1.68-1.24-3.18-2.63-4.37-4.33-.82-1.17-1.87-2.07-3.16-2.57-4.68-1.8-8.46-4.88-12.12-8.17-2.58-2.32-5.42-4.23-8.78-5.24-.47-.14-.95-.3-1.37-.55-6.76-4.05-14.33-4.27-21.87-4.64-1.4-.07-2.73.24-4.07.53-2.02.44-4.07.65-6.14.66-2.14.01-4.07.62-5.65,2.11-1.56,1.47-3.42,2.27-5.5,2.59-2.28.36-4.31,1.24-6.11,2.73-1.29,1.07-2.8,1.79-4.27,2.58-4.36,2.34-8.11,5.48-11.29,9.28-1.32,1.58-2.62,3.14-4.33,4.35-2.09,1.49-3.88,3.3-5.4,5.4-2.36,3.26-5.14,6.17-7.46,9.47-2.76,3.92-4.17,8.41-5.95,12.75-.44,1.09-.64,2.29-1.18,3.32-3.42,6.39-4.52,13.54-6.69,20.34-.95,2.99-.88,6.2-.97,9.32-.11,4.18-.61,8.42.97,12.52.4,1.04.32,2.37.11,3.5-.53,2.98.35,5.63,1.57,8.23.67,1.43,1.11,2.91,1.53,4.43,2.02,7.19,5.08,13.92,9.02,20.27.63,1.01,1.4,1.89,2.23,2.73,3.71,3.76,7.54,7.41,10.65,11.73.73,1.02,1.67,2.05,2.75,2.63,3.45,1.86,5.97,4.73,8.69,7.41,4.58,4.5,10.21,6.94,16.44,7.86,3.67.55,7.31,1.34,11.04,1.55,8.28.46,16.49.21,24.6-1.62.86-.19,1.73-.45,2.5-.86,5.23-2.82,11.1-3.82,16.62-5.84,4.21-1.54,8.53-.73,12.71.69,4.83,1.64,9.68,3.25,14.71,4.21.77.15,1.6.4,2.32.25,6.19-1.32,12.75-1.47,18.14-5.46.79-.59,1.75-.94,2.74-1.02,3.02-.24,6.02-.69,9.09-.41,4.88.44,9.73,1.22,14.66,1.07,2.89-.09,5.6.84,8.25,1.95,5.32,2.22,10.82,3.27,16.61,2.66,3.26-.34,6.41.61,9.61,1,1.38.17,2.75.46,4.09.1,2.44-.65,4.85-.49,7.3-.16.96.13,1.93.48,2.92.15,3.4-1.12,6.93-1.14,10.45-1.48,3.73-.37,7.04-2.35,10.54-3.59,2.22-.78,4.39-1.7,6.68-2.26,2.89-.7,5.57-1.86,8.07-3.48,1.65-1.06,3.33-2.06,5.16-2.83,1.35-.56,2.77-1.21,3.81-2.19,3.64-3.44,7.75-6.3,11.58-9.49,2.53-2.1,5.29-3.35,8.41-3.93,3.38-.63,6.17.89,7.66,4,.63,1.33,1.28,2.66,1.8,4.03.64,1.67.85,3.37.37,5.18-.54,2.02-.39,4.05.24,6.09,1.18,3.81.73,7.58-.87,11.18ZM230.02,280.52c-.67-3.56-.18-7,.6-10.46.34-1.52.41-3.1.69-4.64.98-5.27,2.93-9.83,8.04-12.61,2.79-1.52,5.53-2.76,8.7-3.27,2.82-.45,5.23.09,7.54,1.59,1.72,1.12,3.41,2.3,5.38,3.02.83.3,1.54.84,2.15,1.51,4.35,4.83,7.44,10.28,8.34,16.83.29,2.14.7,4.3,1.91,6.14,2.39,3.63,3.1,7.81,3.88,11.92.51,2.66.89,5.35.35,8.15-.42,2.19.7,4.41.55,6.71-.09,1.4-.2,2.73-.95,3.93-1.17,1.87-1.68,3.95-2.04,6.08-.65,3.85-2.48,6.77-6.39,8.04-.28.09-.6.13-.83.3-3.75,2.84-8.19,2.84-12.58,3.17-2.94.22-5.68-.54-8.32-1.56-3.39-1.31-6.61-2.98-9.35-5.46-1.35-1.23-2.16-2.78-2.83-4.42-.81-2-1.66-3.98-2.81-5.82-.68-1.09-1.17-2.29-1.37-3.56-.7-4.63-1.34-9.27-2.01-13.91-.02-2.62.8-5.08,1.18-7.59.21-1.38.39-2.77.15-4.09Z"/>
</svg>
